<?xml version="1.0" standalone="no"?>
<!DOCTYPE svg
	PUBLIC "-//W3C//DTD SVG 20010904//EN" "http://www.w3.org/TR/2001/REC-SVG-20010904/DTD/svg10.dtd">
<svg version="1.0" xmlns="http://www.w3.org/2000/svg" width="300.000000pt"
	height="300.000000pt" viewBox="0 0 300.000000 300.000000"
	preserveAspectRatio="xMidYMid meet">
	<g transform="translate(0.000000,300.000000) scale(0.100000,-0.100000)"
		fill="rgba(52, 151, 219, 1)" stroke="#000000">
		<path d="M1305 2971 c-48 -22 -69 -44 -90 -94 -34 -81 -6 -172 67 -220 23 -15
50 -27 60 -27 14 0 18 -8 18 -39 l0 -39 -67 -12 c-116 -20 -263 -70 -367 -123
-56 -29 -104 -53 -107 -55 -3 -1 -14 9 -24 24 -12 19 -14 29 -6 37 19 19 13
38 -29 94 -25 33 -48 53 -61 53 -19 0 -61 -22 -85 -45 -6 -5 -40 -32 -77 -60
-36 -27 -69 -56 -72 -63 -7 -18 18 -63 59 -106 27 -29 39 -36 58 -31 17 4 29
0 42 -14 18 -20 17 -22 -45 -93 -35 -40 -67 -75 -70 -78 -32 -27 -141 -210
-178 -301 -114 -276 -130 -554 -50 -839 72 -253 232 -497 419 -638 19 -15 37
-30 40 -33 9 -11 125 -84 176 -112 53 -28 166 -73 219 -88 327 -88 622 -66
905 67 267 126 467 323 600 589 94 190 130 345 130 560 0 211 -39 384 -128
560 -66 133 -119 208 -224 320 -56 59 -56 61 -39 83 13 17 24 22 42 18 13 -3
31 0 39 7 32 25 80 96 80 116 0 14 -31 45 -102 100 -111 87 -144 98 -171 59
-8 -13 -25 -34 -37 -48 -17 -20 -21 -33 -17 -65 4 -28 1 -45 -10 -57 -14 -15
-22 -13 -121 37 -112 56 -260 106 -374 126 l-68 12 0 39 c0 28 4 38 15 38 53
0 126 69 145 135 23 82 -23 176 -104 210 -56 24 -337 21 -391 -4z m292 -631
c221 -29 415 -107 563 -225 33 -26 150 -143 175 -175 88 -111 157 -255 197
-410 29 -112 32 -357 5 -467 -89 -373 -346 -659 -702 -781 -314 -107 -695 -45
-960 155 -99 75 -117 93 -180 168 -70 85 -87 110 -135 205 -82 162 -110 287
-110 478 1 188 33 330 113 487 20 41 92 151 111 171 6 6 29 31 52 55 181 194
382 297 649 334 118 17 130 17 222 5z" />
		<path d="M1458 2166 c-38 -34 -38 -35 -38 -110 0 -42 -3 -76 -7 -76 -4 0 -34
18 -68 40 -58 38 -62 39 -100 28 -57 -17 -60 -21 -57 -75 l4 -49 94 -59 c149
-95 135 -66 132 -263 l-3 -171 -145 84 c-166 95 -157 81 -159 241 -1 109 -6
120 -65 158 -28 18 -28 18 -59 -11 -46 -41 -46 -40 -40 -120 4 -54 3 -73 -7
-73 -6 0 -39 17 -71 37 l-60 36 -47 -19 c-45 -20 -47 -22 -45 -59 4 -53 22
-77 87 -111 31 -16 56 -31 56 -34 0 -3 -29 -20 -65 -38 -68 -33 -80 -49 -87
-111 -3 -30 0 -34 44 -52 l46 -21 118 61 117 61 51 -29 c28 -15 85 -47 126
-70 41 -23 86 -50 99 -60 l23 -18 -83 -48 c-46 -27 -113 -66 -148 -87 l-64
-38 -115 61 c-109 58 -117 61 -151 50 -64 -19 -72 -29 -60 -83 10 -46 13 -49
80 -84 38 -20 66 -40 64 -45 -3 -4 -33 -23 -66 -40 -61 -33 -69 -45 -72 -111
-2 -30 2 -33 47 -50 49 -19 50 -19 75 0 34 25 87 52 102 52 9 0 10 -21 6 -76
-4 -54 -2 -80 7 -88 6 -6 24 -22 38 -35 l27 -23 45 33 46 32 0 101 c0 159 3
168 64 199 28 15 93 51 145 82 52 30 95 55 97 55 2 0 4 -78 4 -172 l0 -173
-33 -21 c-17 -12 -67 -43 -110 -70 -45 -29 -79 -57 -82 -69 -2 -11 -6 -36 -8
-56 -5 -35 -5 -36 45 -52 l51 -16 66 43 66 44 5 -85 c4 -61 9 -87 20 -93 8 -4
26 -18 39 -29 l23 -20 44 36 44 35 0 79 0 78 68 -45 c39 -26 73 -42 82 -38 8
3 30 10 48 16 34 10 36 16 26 81 -6 34 -15 43 -115 108 l-109 72 0 174 c0 96
3 172 8 170 66 -39 217 -126 250 -145 l42 -24 1 -96 c0 -146 7 -169 56 -204
l41 -30 37 37 37 36 -4 80 c-2 43 -2 79 -1 79 0 0 33 -18 72 -40 l72 -41 44
20 c48 21 52 33 39 99 -5 23 -16 34 -55 52 -27 13 -56 31 -65 41 -15 17 -12
20 50 51 71 35 71 35 81 100 l7 45 -48 18 -48 18 -111 -56 c-60 -31 -115 -57
-121 -59 -7 -2 -36 11 -65 28 -30 17 -95 55 -146 85 -51 30 -89 57 -85 60 6 6
125 76 249 146 l42 24 120 -60 120 -61 47 20 c44 19 46 22 40 51 -3 18 -6 40
-6 50 0 14 -21 30 -74 56 -41 20 -73 41 -70 45 3 5 32 22 65 39 63 31 79 54
79 113 0 30 -4 35 -43 50 -23 9 -45 16 -49 16 -3 0 -32 -16 -64 -35 -32 -19
-63 -35 -69 -35 -8 0 -10 24 -7 78 l4 77 -35 34 -36 34 -44 -28 c-43 -27 -45
-31 -51 -88 -3 -33 -6 -94 -6 -136 l0 -76 -93 -54 c-50 -29 -118 -69 -149 -87
l-58 -33 0 174 0 174 103 67 c56 37 105 70 108 73 4 3 10 29 14 57 l7 52 -50
16 -50 17 -63 -41 -64 -41 -5 76 c-5 75 -6 78 -44 111 -22 19 -42 34 -45 34
-3 0 -23 -16 -43 -34z" />
	</g>
</svg>